<svg width="143" height="24" viewBox="0 0 143 24" fill="none" xmlns="http://www.w3.org/2000/svg">
<g id="drinks">
<path d="M0.896973 23.6005V0.763134H9.58807C13.2607 0.763134 16.1349 1.67308 18.2107 3.49297C20.2866 5.31286 21.3245 8.20914 21.3245 12.1818C21.3245 16.1545 20.2866 19.0508 18.2107 20.8707C16.1349 22.6906 13.2607 23.6005 9.58807 23.6005H0.896973ZM4.14758 20.8374H9.58807C11.2989 20.8374 12.7817 20.5711 14.0363 20.0384C15.2909 19.4836 16.2604 18.5847 16.9447 17.3419C17.6291 16.0768 17.9712 14.379 17.9712 12.2484V12.1818C17.9712 10.029 17.6291 8.33121 16.9447 7.08836C16.2832 5.82331 15.3251 4.91337 14.0705 4.35853C12.8159 3.80368 11.3217 3.52626 9.58807 3.52626H4.14758V20.8374Z" fill="white"/>
<path d="M29.0123 23.6005V0.763134H41.2278C43.6458 0.763134 45.4593 1.37346 46.6683 2.59412C47.9001 3.79258 48.516 5.34615 48.516 7.25481C48.516 8.83057 48.1282 10.1844 47.3526 11.3163C46.5998 12.426 45.5505 13.2249 44.2047 13.7132L49.6109 23.6005H45.9839L40.8856 14.1793H32.2629V23.6005H29.0123ZM32.2629 11.4161H41.0567C42.3113 11.4161 43.315 11.0499 44.0678 10.3176C44.8434 9.58516 45.2312 8.57534 45.2312 7.2881C45.2312 6.11183 44.8776 5.19079 44.1704 4.52498C43.4861 3.85917 42.4482 3.52626 41.0567 3.52626H32.2629V11.4161Z" fill="white"/>
<path d="M57.5725 23.6005V0.763134H60.8231V23.6005H57.5725Z" fill="white"/>
<path d="M70.0727 23.6005V0.763134H72.9811L85.3676 16.6761C85.4589 16.8092 85.5501 16.9313 85.6414 17.0423C85.7326 17.1532 85.8239 17.2642 85.9151 17.3752C86.0063 17.4861 86.0976 17.6082 86.1888 17.7414L86.3257 17.7081C86.3257 17.5305 86.3257 17.3641 86.3257 17.2087C86.3257 17.0312 86.3257 16.8536 86.3257 16.6761C86.3257 16.4985 86.3257 16.321 86.3257 16.1434V0.763134H89.371V23.6005H86.5994L74.1445 7.48785C73.9848 7.2881 73.8365 7.09946 73.6997 6.9219C73.5628 6.72216 73.4145 6.52242 73.2548 6.32267L73.118 6.35597C73.118 6.53351 73.118 6.71106 73.118 6.88861C73.118 7.06616 73.118 7.24372 73.118 7.42127C73.118 7.57662 73.118 7.74308 73.118 7.92063V23.6005H70.0727Z" fill="white"/>
<path d="M98.188 23.6005V0.763134H101.439V13.347L113.859 0.763134H117.897L108.966 9.88477L118.205 23.6005H114.338L106.708 12.1485L101.439 16.9424V23.6005H98.188Z" fill="white"/>
<path d="M133.089 24C131.355 24 129.747 23.7781 128.264 23.3342C126.805 22.8903 125.63 22.169 124.74 21.1703C123.85 20.1716 123.406 18.8289 123.406 17.1421C123.406 17.0312 123.406 16.9091 123.406 16.7759C123.428 16.6206 123.44 16.5207 123.44 16.4763H126.656C126.656 16.4985 126.645 16.5984 126.622 16.7759C126.599 16.9313 126.588 17.0645 126.588 17.1754C126.588 18.5736 127.181 19.6167 128.367 20.3047C129.553 20.9706 131.07 21.3035 132.918 21.3035C135.062 21.3035 136.705 20.9817 137.845 20.338C138.986 19.6722 139.556 18.729 139.556 17.5083C139.556 16.665 139.271 15.9881 138.701 15.4776C138.153 14.945 137.412 14.5233 136.477 14.2126C135.564 13.8797 134.549 13.58 133.431 13.3137C132.313 13.0474 131.196 12.7589 130.078 12.4482C128.983 12.1374 127.968 11.7491 127.033 11.283C126.12 10.7947 125.379 10.1733 124.809 9.4187C124.261 8.64192 123.987 7.6654 123.987 6.48913C123.987 5.09092 124.398 3.94794 125.219 3.06019C126.04 2.15024 127.147 1.47333 128.538 1.02946C129.93 0.585585 131.458 0.363647 133.123 0.363647C134.788 0.363647 136.294 0.585585 137.64 1.02946C139.009 1.45114 140.092 2.13915 140.89 3.09348C141.712 4.02562 142.122 5.25737 142.122 6.78874V7.18823H138.94V6.68887C138.94 5.5348 138.393 4.64704 137.298 4.02562C136.226 3.382 134.868 3.06019 133.226 3.06019C131.492 3.06019 130.067 3.32651 128.949 3.85916C127.831 4.36962 127.272 5.1686 127.272 6.25609C127.272 7.03287 127.546 7.6654 128.093 8.15366C128.664 8.64192 129.405 9.05251 130.317 9.38541C131.253 9.69613 132.268 9.98465 133.363 10.251C134.481 10.4951 135.587 10.7725 136.682 11.0832C137.8 11.3939 138.815 11.7934 139.727 12.2817C140.662 12.7478 141.404 13.3692 141.951 14.146C142.521 14.9006 142.807 15.8549 142.807 17.009C142.807 18.7179 142.385 20.0828 141.541 21.1037C140.697 22.1246 139.545 22.8681 138.085 23.3342C136.625 23.7781 134.96 24 133.089 24Z" fill="white"/>
</g>
</svg>
